<?xml version="1.0" encoding="utf-8"?>
<!-- Generator: Adobe Illustrator 24.1.0, SVG Export Plug-In . SVG Version: 6.00 Build 0)  -->
<svg version="1.1" id="Capa_1" xmlns="http://www.w3.org/2000/svg" xmlns:xlink="http://www.w3.org/1999/xlink" x="0px" y="0px"
	 viewBox="0 0 1920 1080" style="enable-background:new 0 0 1920 1080;" xml:space="preserve">
<style type="text/css">
	.st0{fill:url(#SVGID_1_);stroke:#FFFFFF;stroke-miterlimit:10;}
	.st1{fill:#1D1DDB;}
	.st2{fill:#AFB53A;}
	.st3{fill:#383838;}
</style>
<g>
	
		<radialGradient id="SVGID_1_" cx="999.5" cy="524.5" r="808.4359" gradientTransform="matrix(0.9605 0 0 0.9721 0.0198 30.1219)" gradientUnits="userSpaceOnUse">
		<stop  offset="0" style="stop-color:#FFFFFF"/>
		<stop  offset="1" style="stop-color:#969696"/>
	</radialGradient>
	<rect x="0.5" y="-0.5" class="st0" width="1919" height="1081"/>
	<g>
		<g>
			<path class="st1" d="M629.65,779.96l-13.35-53.81v58.31c0,3.23-0.71,5.65-2.13,7.26c-1.42,1.61-3.31,2.42-5.65,2.42
				c-2.27,0-4.13-0.8-5.57-2.39c-1.44-1.59-2.16-4.02-2.16-7.29v-66.84c0-3.69,0.95-6.17,2.84-7.46c1.89-1.29,4.45-1.93,7.67-1.93
				h5.23c3.14,0,5.43,0.29,6.85,0.86c1.42,0.58,2.47,1.61,3.15,3.11c0.68,1.5,1.46,3.94,2.33,7.32l12.1,46.27l12.1-46.27
				c0.87-3.38,1.65-5.82,2.33-7.32c0.68-1.5,1.73-2.54,3.15-3.11s3.7-0.86,6.85-0.86h5.23c3.22,0,5.78,0.64,7.67,1.93
				c1.89,1.29,2.84,3.77,2.84,7.46v66.84c0,3.23-0.71,5.65-2.13,7.26c-1.42,1.61-3.32,2.42-5.71,2.42c-2.24,0-4.07-0.81-5.51-2.42
				c-1.44-1.61-2.16-4.03-2.16-7.26v-58.31l-13.35,53.81c-0.87,3.5-1.58,6.06-2.13,7.69c-0.55,1.63-1.56,3.12-3.04,4.46
				s-3.52,2.02-6.14,2.02c-1.97,0-3.64-0.43-5-1.3c-1.36-0.87-2.42-1.97-3.18-3.31c-0.76-1.34-1.35-2.83-1.79-4.47
				C630.55,783.43,630.1,781.73,629.65,779.96z"/>
			<path class="st1" d="M742.46,783.13l-3.98-10.6h-33.87l-3.98,10.83c-1.55,4.23-2.88,7.08-3.98,8.56c-1.1,1.48-2.9,2.22-5.4,2.22
				c-2.12,0-4-0.79-5.63-2.36s-2.44-3.36-2.44-5.36c0-1.15,0.19-2.34,0.57-3.57c0.38-1.23,1-2.94,1.88-5.13l21.31-54.85
				c0.61-1.57,1.34-3.47,2.19-5.68c0.85-2.21,1.76-4.04,2.73-5.5c0.97-1.46,2.23-2.64,3.81-3.54c1.57-0.9,3.51-1.35,5.82-1.35
				c2.35,0,4.31,0.45,5.88,1.35c1.57,0.9,2.84,2.06,3.81,3.49c0.97,1.42,1.78,2.95,2.44,4.58c0.66,1.63,1.51,3.81,2.53,6.54
				l21.76,54.51c1.7,4.15,2.56,7.16,2.56,9.05c0,1.96-0.81,3.75-2.42,5.39c-1.61,1.63-3.55,2.45-5.82,2.45
				c-1.33,0-2.46-0.24-3.41-0.72c-0.95-0.48-1.74-1.13-2.39-1.96c-0.64-0.83-1.34-2.09-2.07-3.8S742.99,784.44,742.46,783.13z
				 M709.04,759.68h24.89l-12.56-34.86L709.04,759.68z"/>
			<path class="st1" d="M786.22,756.57h-5.91v27.14c0,3.57-0.78,6.2-2.33,7.89c-1.55,1.69-3.58,2.54-6.08,2.54
				c-2.69,0-4.77-0.88-6.25-2.65s-2.22-4.36-2.22-7.78v-64.99c0-3.69,0.81-6.36,2.44-8.01c1.63-1.65,4.26-2.48,7.9-2.48h27.45
				c3.79,0,7.03,0.16,9.72,0.49c2.69,0.33,5.11,0.99,7.27,1.99c2.61,1.11,4.92,2.71,6.93,4.78c2.01,2.07,3.53,4.49,4.57,7.23
				c1.04,2.75,1.56,5.66,1.56,8.73c0,6.3-1.75,11.33-5.26,15.1c-3.5,3.76-8.82,6.43-15.94,8.01c2.99,1.61,5.85,4,8.58,7.14
				c2.73,3.15,5.16,6.5,7.3,10.05c2.14,3.55,3.81,6.76,5,9.62c1.19,2.86,1.79,4.83,1.79,5.91c0,1.11-0.35,2.22-1.05,3.31
				c-0.7,1.1-1.66,1.96-2.87,2.59c-1.21,0.63-2.61,0.95-4.21,0.95c-1.89,0-3.49-0.45-4.77-1.35c-1.29-0.9-2.4-2.04-3.32-3.43
				c-0.93-1.38-2.19-3.42-3.78-6.11L806,771.84c-2.42-4.19-4.59-7.38-6.51-9.56c-1.91-2.19-3.86-3.69-5.82-4.49
				C791.7,756.97,789.22,756.57,786.22,756.57z M795.88,721.08h-15.57v23.22h15.12c4.05,0,7.46-0.35,10.23-1.07
				c2.76-0.71,4.88-1.92,6.34-3.63c1.46-1.71,2.19-4.06,2.19-7.06c0-2.34-0.59-4.41-1.76-6.19c-1.17-1.79-2.8-3.12-4.89-4
				C805.56,721.5,801.68,721.08,795.88,721.08z"/>
			<path class="st1" d="M854.94,717.16v29.62l33.13-35.03c1.59-1.69,2.94-2.94,4.06-3.75c1.12-0.81,2.6-1.21,4.46-1.21
				c2.42,0,4.38,0.72,5.88,2.16c1.5,1.44,2.25,3.2,2.25,5.27c0,2.5-1.27,4.97-3.81,7.43l-20.51,19.71l23.64,34.34
				c1.67,2.38,2.92,4.47,3.75,6.25c0.83,1.79,1.25,3.53,1.25,5.21c0,1.88-0.73,3.51-2.19,4.9c-1.46,1.38-3.44,2.07-5.94,2.07
				c-2.35,0-4.26-0.51-5.74-1.53c-1.48-1.02-2.73-2.37-3.75-4.06c-1.02-1.69-1.93-3.23-2.73-4.61l-19.95-31.11l-13.81,13.42v17.46
				c0,3.53-0.8,6.16-2.39,7.87c-1.59,1.71-3.64,2.56-6.14,2.56c-1.44,0-2.82-0.38-4.15-1.15c-1.33-0.77-2.35-1.8-3.07-3.11
				c-0.53-1.08-0.85-2.32-0.97-3.75c-0.11-1.42-0.17-3.48-0.17-6.17v-62.8c0-3.46,0.75-6.05,2.24-7.78c1.5-1.73,3.53-2.59,6.11-2.59
				c2.54,0,4.59,0.86,6.17,2.56C854.15,711.06,854.94,713.66,854.94,717.16z"/>
			<path class="st1" d="M924.22,724.25h-0.85c-2.12,0-4.04-0.87-5.77-2.62c-1.72-1.75-2.59-3.81-2.59-6.19
				c0-2.46,0.86-4.51,2.59-6.17c1.72-1.65,3.85-2.48,6.39-2.48c1.74,0,3.37,0.51,4.89,1.53c1.51,1.02,2.69,2.5,3.52,4.44
				c0.83,1.94,1.25,4.31,1.25,7.12c0,3.8-0.8,7.37-2.39,10.69c-1.59,3.32-3.53,5.96-5.82,7.89c-2.29,1.94-4.37,2.91-6.22,2.91
				c-1.17,0-2.13-0.37-2.87-1.12c-0.74-0.75-1.11-1.66-1.11-2.74c0-1.73,0.78-3,2.33-3.8c2.01-1.19,3.58-2.5,4.72-3.92
				C923.42,728.36,924.07,726.51,924.22,724.25z"/>
			<path class="st1" d="M1005.21,767.34c0,5.11-1.3,9.7-3.89,13.77c-2.6,4.07-6.39,7.26-11.39,9.56c-5,2.3-10.93,3.46-17.79,3.46
				c-8.22,0-15-1.57-20.34-4.72c-3.79-2.27-6.87-5.29-9.23-9.08c-2.37-3.78-3.55-7.46-3.55-11.03c0-2.07,0.71-3.85,2.13-5.33
				c1.42-1.48,3.23-2.22,5.43-2.22c1.78,0,3.29,0.58,4.52,1.73c1.23,1.15,2.28,2.86,3.15,5.13c1.06,2.69,2.21,4.94,3.44,6.74
				c1.23,1.81,2.96,3.29,5.2,4.47c2.23,1.17,5.17,1.76,8.81,1.76c5,0,9.06-1.18,12.19-3.54c3.13-2.36,4.69-5.31,4.69-8.84
				c0-2.8-0.84-5.08-2.53-6.83c-1.69-1.75-3.86-3.08-6.54-4c-2.67-0.92-6.24-1.9-10.71-2.94c-5.99-1.42-11-3.08-15.03-4.98
				c-4.03-1.9-7.24-4.49-9.6-7.78c-2.37-3.28-3.55-7.36-3.55-12.24c0-4.65,1.25-8.78,3.75-12.39c2.5-3.61,6.12-6.39,10.85-8.33
				c4.74-1.94,10.3-2.91,16.71-2.91c5.12,0,9.54,0.64,13.27,1.93c3.73,1.29,6.83,3,9.29,5.13c2.46,2.13,4.26,4.37,5.4,6.71
				c1.14,2.34,1.71,4.63,1.71,6.86c0,2.04-0.71,3.87-2.13,5.5c-1.42,1.63-3.19,2.45-5.31,2.45c-1.93,0-3.4-0.49-4.4-1.47
				c-1-0.98-2.09-2.58-3.27-4.81c-1.52-3.19-3.33-5.68-5.46-7.46c-2.12-1.79-5.53-2.68-10.23-2.68c-4.36,0-7.87,0.97-10.54,2.91
				s-4.01,4.27-4.01,7c0,1.69,0.45,3.15,1.36,4.38c0.91,1.23,2.16,2.29,3.75,3.17c1.59,0.88,3.2,1.58,4.83,2.07
				c1.63,0.5,4.32,1.23,8.07,2.19c4.7,1.11,8.95,2.34,12.76,3.69c3.81,1.34,7.05,2.98,9.72,4.9c2.67,1.92,4.75,4.35,6.25,7.29
				C1004.46,759.48,1005.21,763.08,1005.21,767.34z"/>
			<path class="st2" d="M1025.33,713.17h10.13v70.92h33.52v8.61h-43.64V713.17z"/>
			<path class="st2" d="M1133.45,752.1c0,27.38-16.41,41.89-36.43,41.89c-20.72,0-35.26-16.28-35.26-40.35
				c0-25.25,15.48-41.77,36.43-41.77C1119.6,711.87,1133.45,728.5,1133.45,752.1z M1072.58,753.4c0,16.99,9.08,32.21,25.02,32.21
				c16.06,0,25.14-14.99,25.14-33.04c0-15.81-8.15-32.33-25.02-32.33C1080.96,720.25,1072.58,735.94,1072.58,753.4z"/>
			<path class="st2" d="M1196.99,789.15c-4.54,1.65-13.5,4.37-24.09,4.37c-11.87,0-21.65-3.07-29.33-10.5
				c-6.75-6.61-10.94-17.23-10.94-29.62c0.12-23.72,16.18-41.06,42.48-41.06c9.08,0,16.18,2.01,19.55,3.66l-2.44,8.38
				c-4.19-1.89-9.43-3.42-17.34-3.42c-19.09,0-31.54,12.04-31.54,31.98c0,20.18,11.99,32.09,30.26,32.09
				c6.63,0,11.17-0.94,13.5-2.12v-23.72h-15.94v-8.26h25.84V789.15z"/>
			<path class="st2" d="M1270.2,752.1c0,27.38-16.41,41.89-36.43,41.89c-20.71,0-35.26-16.28-35.26-40.35
				c0-25.25,15.48-41.77,36.43-41.77C1256.35,711.87,1270.2,728.5,1270.2,752.1z M1209.33,753.4c0,16.99,9.08,32.21,25.02,32.21
				c16.06,0,25.14-14.99,25.14-33.04c0-15.81-8.15-32.33-25.02-32.33C1217.71,720.25,1209.33,735.94,1209.33,753.4z"/>
		</g>
		<g>
			<path class="st3" d="M646.62,830.36c0,4.39-1.78,8.19-5.33,11.39c-3.87,3.48-8.82,5.23-14.86,5.23c-1.16,0-2.89-0.03-5.21-0.09
				c-2.32-0.06-4.06-0.09-5.22-0.09c-1.04,0-2.62,0.03-4.72,0.09c-2.1,0.06-3.67,0.09-4.71,0.09c-0.56,0-0.83-0.2-0.83-0.59
				c0-1.7,0.09-4.27,0.28-7.71c0.19-3.44,0.28-6.02,0.28-7.73c0-1.81-0.09-4.54-0.27-8.18c-0.18-3.64-0.27-6.37-0.27-8.18
				c0-0.33,0.29-0.49,0.87-0.49c0.82,0,2.05,0.01,3.68,0.02s2.86,0.02,3.68,0.02c0.75,0,1.91-0.01,3.47-0.02
				c1.55-0.02,2.73-0.02,3.53-0.02c7.71,0,13.45,1.02,17.23,3.07c2.71,1.47,4.81,3.45,6.3,5.93
				C645.92,825.41,646.62,827.83,646.62,830.36z M638.45,830.36c0-3.38-1.37-6.13-4.1-8.25c-2.84-2.2-6.64-3.3-11.4-3.3
				c-3.93,0-5.52-0.02-4.77-0.05c-2.6,0.09-3.9,0.43-3.9,1.01c0,1.2-0.04,3-0.12,5.4c-0.08,2.4-0.12,4.2-0.12,5.4
				c0,1.19,0.04,2.97,0.12,5.34c0.08,2.38,0.12,4.16,0.12,5.34c0,0.59,1.33,0.94,4,1.03c-0.36-0.02,1.27-0.02,4.87-0.02
				c2.55,0,4.59-0.19,6.1-0.56c1.87-0.47,3.54-1.34,5.03-2.6C637.07,836.73,638.45,833.81,638.45,830.36z"/>
			<path class="st3" d="M681.94,842.27c0,0.25-0.09,0.61-0.27,1.08c-0.2,0.59-0.32,0.95-0.37,1.08c-0.07,0.56-0.22,1.38-0.47,2.46
				c-0.11,0.28-0.4,0.42-0.87,0.42c-0.22,0-0.64-0.03-1.27-0.09c-2.73-0.28-6.96-0.42-12.7-0.42c-1.62,0-4.07,0.03-7.33,0.09
				s-5.71,0.09-7.33,0.09c-0.73,0-1.1-0.23-1.1-0.68c0-1.75,0.14-4.38,0.42-7.89c0.28-3.51,0.42-6.14,0.42-7.89
				c0-1.78-0.13-5.1-0.4-9.96c-0.04-1.25-0.17-3.12-0.37-5.6l-0.03-0.33c-0.02-0.36,0.27-0.54,0.87-0.54c1.55,0,3.89,0.03,7,0.09
				c3.11,0.06,5.44,0.09,7,0.09c1.49,0,3.72-0.03,6.68-0.09s5.19-0.09,6.68-0.09c1.04,0,1.61,0.23,1.7,0.68
				c0.47,2.06,0.7,3.34,0.7,3.84c0,0.36-0.24,0.54-0.73,0.54c-1.89,0-4.75-0.07-8.58-0.22s-6.71-0.22-8.65-0.22
				c-1.82,0-2.97,0.17-3.45,0.52c-0.48,0.34-0.72,1.2-0.72,2.55v3.49c0,0.95,0.03,1.51,0.1,1.66c0.2,0.48,0.78,0.73,1.73,0.73
				c0.27,0,0.64-0.01,1.13-0.02c0.51,0,0.89,0,1.13,0c4.35,0,8.26-0.05,11.73-0.16c1.35-0.03,2.95-0.11,4.8-0.23
				c0.47-0.03,0.7,0.11,0.7,0.42c0,0.5-0.08,1.27-0.25,2.3s-0.25,1.8-0.25,2.32c0,0.28-0.33,0.42-1,0.42
				c-0.27,0-1.26-0.05-2.97-0.16c-1.24-0.09-4.04-0.14-8.4-0.14c-3.67,0-5.99,0.03-6.96,0.09c-0.89,0.05-1.4,0.38-1.53,0.98
				c0.02-0.11,0.03,0.49,0.03,1.8v3.47c0,1.63,0.35,2.64,1.07,3.05c0.56,0.33,1.94,0.49,4.17,0.49l3.67-0.02
				c1.55,0,5.92-0.19,13.1-0.56l0.5-0.02C681.71,841.65,681.94,841.85,681.94,842.27z"/>
			<path class="st3" d="M712.16,816.46c-0.44,0.52-1.06,1.3-1.83,2.34c-0.24,0.48-0.68,1.17-1.3,2.06
				c-0.13,0.14-0.31,0.21-0.53,0.21c0.02,0-1.05-0.28-3.22-0.83s-3.95-0.83-5.35-0.83c-4.09,0-6.13,1.27-6.13,3.8
				c0,1.41,1.43,2.63,4.3,3.68c4.82,1.77,7.49,2.78,8,3.05c2.87,1.61,4.3,3.78,4.3,6.52c0,3.5-1.97,6.26-5.9,8.27
				c-3.53,1.81-7.88,2.72-13.03,2.72c-2.4,0-3.69-0.19-3.87-0.56c-0.09-0.59-0.29-1.46-0.6-2.6c-0.18-0.47-0.46-1.17-0.83-2.11
				c-0.07-0.14-0.1-0.27-0.1-0.4c0-0.22,0.17-0.33,0.5-0.33c0.53,0,1.35,0.04,2.45,0.12s1.93,0.12,2.48,0.12
				c6.89,0,10.33-1.56,10.33-4.69c0-1.53-1.39-2.86-4.17-3.98c-5.07-2.03-7.65-3.09-7.76-3.16c-2.8-1.59-4.2-3.73-4.2-6.42
				c0-2.91,1.35-5.23,4.07-6.98c2.64-1.69,6.06-2.53,10.26-2.53c1.78,0,3.82,0.2,6.13,0.61c2.51,0.45,4.4,1,5.67,1.64
				C711.93,816.22,712.04,816.32,712.16,816.46z"/>
			<path class="st3" d="M724.85,846.49c0,0.33-0.32,0.49-0.97,0.49c-0.4,0-1.01-0.02-1.83-0.07c-0.82-0.05-1.43-0.07-1.83-0.07
				c-0.42,0-1.04,0.02-1.87,0.07c-0.82,0.05-1.43,0.07-1.83,0.07c-0.56,0-0.83-0.18-0.83-0.54c0-1.78,0.12-4.46,0.35-8.05
				s0.35-6.28,0.35-8.07c0-1.73-0.12-4.34-0.35-7.82s-0.35-6.08-0.35-7.82c0-0.39,0.25-0.59,0.77-0.59c0.42,0,1.07,0.02,1.93,0.07
				c0.87,0.05,1.52,0.07,1.97,0.07c0.4,0,1-0.02,1.8-0.07s1.4-0.07,1.8-0.07c0.58,0,0.87,0.16,0.87,0.47c0,1.75-0.09,4.38-0.27,7.88
				c-0.18,3.5-0.27,6.13-0.27,7.88c0,1.8,0.09,4.49,0.28,8.09C724.75,841.99,724.85,844.69,724.85,846.49z"/>
			<path class="st3" d="M770.99,845.83c0.04,0.34-0.23,0.52-0.83,0.52c-0.33,0-1.14-0.22-2.42-0.67c-1.28-0.45-2.09-0.76-2.45-0.95
				c-4.09,1.95-8.93,2.93-14.53,2.93c-6.53,0-11.91-1.72-16.13-5.16c-4-3.25-6-7.21-6-11.88c0-4.78,1.97-8.8,5.9-12.05
				c4.15-3.44,9.56-5.16,16.23-5.16c3.42,0,6.71,0.57,9.88,1.7c3.17,1.13,5.69,2.68,7.58,4.65c0.29,0.3,0.43,0.52,0.43,0.68
				c0,0.22-0.79,0.94-2.38,2.17c-1.59,1.23-2.5,1.84-2.75,1.84c-0.18,0-0.86-0.48-2.03-1.43c-1.42-1.16-2.78-2.04-4.07-2.65
				c-2.02-0.95-4.13-1.43-6.33-1.43c-4.2,0-7.64,1.23-10.33,3.7c-2.44,2.25-3.67,4.91-3.67,7.97c0,2.98,1.25,5.63,3.77,7.92
				c2.73,2.48,6.17,3.73,10.3,3.73c4.07,0,7.8-0.78,11.2-2.34c-0.04-0.42-0.23-1.91-0.57-4.45c-0.27-1.81-0.4-3.29-0.4-4.43
				c0-0.27,0.24-0.4,0.73-0.4c0.42,0,1.06,0.02,1.9,0.06s1.48,0.06,1.9,0.06c0.42,0,1.07-0.02,1.93-0.05
				c0.87-0.03,1.51-0.05,1.93-0.05c0.47,0,0.7,0.25,0.7,0.75c0,0.55-0.03,1.37-0.08,2.47c-0.06,1.1-0.08,1.93-0.08,2.47
				c0,2.25,0.21,5.3,0.63,9.14L770.99,845.83z"/>
			<path class="st3" d="M816.54,814.61c0,1.8-0.09,4.51-0.27,8.13c-0.18,3.63-0.27,6.34-0.27,8.16c0,1.7,0.02,4.25,0.07,7.65
				s0.07,5.95,0.07,7.65c0,0.52-0.28,0.77-0.83,0.77c-0.33,0-0.83-0.02-1.5-0.07s-1.17-0.07-1.5-0.07c-0.36,0-0.9,0.02-1.63,0.07
				c-0.73,0.05-1.28,0.07-1.63,0.07c-0.4,0-0.88-0.26-1.43-0.77c-4.8-4.55-12.07-11.33-21.83-20.34c-1.51-1.38-2.39-2.14-2.63-2.3
				c-0.22,0-0.33,0.32-0.33,0.96c0,2.41,0.06,6.02,0.17,10.84c0.11,4.82,0.17,8.43,0.17,10.84c0,0.52-0.22,0.77-0.67,0.77
				c-0.38,0-0.96-0.02-1.73-0.07c-0.78-0.05-1.36-0.07-1.73-0.07c-0.4,0-0.99,0.02-1.78,0.07c-0.79,0.05-1.38,0.07-1.78,0.07
				c-0.56,0-0.83-0.16-0.83-0.47c0-1.72,0.12-4.31,0.35-7.77s0.35-6.06,0.35-7.79c0-1.89-0.1-5.3-0.3-10.22
				c-0.04-1.28-0.16-3.2-0.33-5.77l-0.03-0.3c-0.02-0.23,0.24-0.36,0.8-0.38c1.44-0.02,2.58-0.05,3.4-0.09
				c0.31-0.02,0.9-0.08,1.77-0.19c0.73-0.09,1.31-0.14,1.73-0.14c0.2,0,0.54,0.23,1.03,0.68c5.11,4.94,12.93,12.28,23.46,22.03
				c0.47,0.41,0.9,0.76,1.3,1.05c0.16-0.66,0.23-2.16,0.23-4.5c0-2.03-0.11-5.08-0.32-9.14c-0.21-4.06-0.32-7.1-0.32-9.12
				c0-0.52,0.22-0.77,0.67-0.77c0.4,0,1,0.02,1.82,0.07s1.42,0.07,1.82,0.07c0.42,0,1.05-0.02,1.9-0.07
				c0.84-0.05,1.48-0.07,1.9-0.07C816.31,814.1,816.54,814.27,816.54,814.61z"/>
			<path class="st3" d="M853.53,842.27c0,0.25-0.09,0.61-0.27,1.08c-0.2,0.59-0.32,0.95-0.37,1.08c-0.07,0.56-0.22,1.38-0.47,2.46
				c-0.11,0.28-0.4,0.42-0.87,0.42c-0.22,0-0.64-0.03-1.27-0.09c-2.73-0.28-6.96-0.42-12.7-0.42c-1.62,0-4.07,0.03-7.33,0.09
				s-5.71,0.09-7.33,0.09c-0.73,0-1.1-0.23-1.1-0.68c0-1.75,0.14-4.38,0.42-7.89c0.28-3.51,0.42-6.14,0.42-7.89
				c0-1.78-0.13-5.1-0.4-9.96c-0.04-1.25-0.17-3.12-0.37-5.6l-0.03-0.33c-0.02-0.36,0.27-0.54,0.87-0.54c1.55,0,3.89,0.03,7,0.09
				c3.11,0.06,5.44,0.09,7,0.09c1.49,0,3.72-0.03,6.68-0.09s5.19-0.09,6.68-0.09c1.04,0,1.61,0.23,1.7,0.68
				c0.47,2.06,0.7,3.34,0.7,3.84c0,0.36-0.24,0.54-0.73,0.54c-1.89,0-4.75-0.07-8.58-0.22s-6.71-0.22-8.65-0.22
				c-1.82,0-2.97,0.17-3.45,0.52c-0.48,0.34-0.72,1.2-0.72,2.55v3.49c0,0.95,0.03,1.51,0.1,1.66c0.2,0.48,0.78,0.73,1.73,0.73
				c0.27,0,0.64-0.01,1.13-0.02c0.51,0,0.89,0,1.13,0c4.35,0,8.26-0.05,11.73-0.16c1.35-0.03,2.95-0.11,4.8-0.23
				c0.47-0.03,0.7,0.11,0.7,0.42c0,0.5-0.08,1.27-0.25,2.3s-0.25,1.8-0.25,2.32c0,0.28-0.33,0.42-1,0.42
				c-0.27,0-1.26-0.05-2.97-0.16c-1.24-0.09-4.04-0.14-8.4-0.14c-3.67,0-5.99,0.03-6.96,0.09c-0.89,0.05-1.4,0.38-1.53,0.98
				c0.02-0.11,0.03,0.49,0.03,1.8v3.47c0,1.63,0.35,2.64,1.07,3.05c0.56,0.33,1.94,0.49,4.17,0.49l3.67-0.02
				c1.55,0,5.92-0.19,13.1-0.56l0.5-0.02C853.3,841.65,853.53,841.85,853.53,842.27z"/>
			<path class="st3" d="M898.07,830.36c0,4.39-1.78,8.19-5.33,11.39c-3.87,3.48-8.82,5.23-14.86,5.23c-1.16,0-2.89-0.03-5.21-0.09
				c-2.32-0.06-4.06-0.09-5.22-0.09c-1.04,0-2.62,0.03-4.72,0.09c-2.1,0.06-3.67,0.09-4.71,0.09c-0.56,0-0.83-0.2-0.83-0.59
				c0-1.7,0.09-4.27,0.28-7.71c0.19-3.44,0.28-6.02,0.28-7.73c0-1.81-0.09-4.54-0.27-8.18c-0.18-3.64-0.27-6.37-0.27-8.18
				c0-0.33,0.29-0.49,0.87-0.49c0.82,0,2.05,0.01,3.68,0.02s2.86,0.02,3.68,0.02c0.75,0,1.91-0.01,3.47-0.02
				c1.55-0.02,2.73-0.02,3.53-0.02c7.71,0,13.45,1.02,17.23,3.07c2.71,1.47,4.81,3.45,6.3,5.93
				C897.37,825.41,898.07,827.83,898.07,830.36z M889.91,830.36c0-3.38-1.37-6.13-4.1-8.25c-2.84-2.2-6.64-3.3-11.4-3.3
				c-3.93,0-5.52-0.02-4.77-0.05c-2.6,0.09-3.9,0.43-3.9,1.01c0,1.2-0.04,3-0.12,5.4c-0.08,2.4-0.12,4.2-0.12,5.4
				c0,1.19,0.04,2.97,0.12,5.34c0.08,2.38,0.12,4.16,0.12,5.34c0,0.59,1.33,0.94,4,1.03c-0.36-0.02,1.27-0.02,4.87-0.02
				c2.55,0,4.59-0.19,6.1-0.56c1.87-0.47,3.54-1.34,5.03-2.6C888.52,836.73,889.91,833.81,889.91,830.36z"/>
			<path class="st3" d="M953.25,836.85c0,2.72-1.17,5.05-3.5,7.01c-2.47,2.05-5.6,3.07-9.4,3.07c-1.42,0-3.56-0.02-6.41-0.07
				c-2.85-0.05-4.99-0.07-6.42-0.07c-1.04,0-2.62,0.03-4.71,0.09c-2.1,0.06-3.67,0.09-4.72,0.09c-0.56,0-0.83-0.18-0.83-0.54
				c0-1.72,0.12-4.3,0.35-7.75s0.35-6.03,0.35-7.75c0-1.81-0.12-4.54-0.35-8.17s-0.35-6.36-0.35-8.17c0-0.34,0.28-0.52,0.83-0.52
				c1.98,0,4.95,0.01,8.93,0.02c3.98,0.02,6.96,0.02,8.96,0.02c4.67,0,8.39,0.61,11.16,1.83c3.38,1.48,5.07,3.79,5.07,6.91
				c0,1.08-0.44,2.2-1.33,3.36c-0.89,1.16-1.97,2.04-3.23,2.64c-0.64,0.3-0.97,0.49-0.97,0.59s0.32,0.27,0.97,0.52
				c1.69,0.66,3.04,1.62,4.07,2.89C952.74,834.15,953.25,835.48,953.25,836.85z M943.88,823.4c0-2.2-1.4-3.69-4.2-4.45
				c-1.69-0.45-4.45-0.68-8.3-0.68c-3.73,0-5.6,0.2-5.6,0.59c0,0.52-0.03,1.29-0.1,2.32c-0.07,1.03-0.1,1.81-0.1,2.34
				c0,0.36,0.01,0.91,0.03,1.66c0.02,0.75,0.03,1.31,0.03,1.69c0,0.45,2.51,0.68,7.53,0.68
				C940.32,827.55,943.88,826.17,943.88,823.4z M944.78,836.62c0-1.91-1.21-3.2-3.63-3.87c-1.53-0.44-3.92-0.66-7.16-0.66
				c-5.6,0-8.4,0.21-8.4,0.63v3.84c0,0.56,0.02,1.42,0.07,2.58c0.04,1.16,0.07,2.02,0.07,2.6c0,0.16,0.71,0.27,2.13,0.35
				c1.42,0.08,3.53,0.12,6.33,0.12c3.51,0,6.03-0.32,7.56-0.96C943.77,840.42,944.78,838.87,944.78,836.62z"/>
			<path class="st3" d="M992.86,822.93c0,0.89-1.98,3.25-5.93,7.08c-2.62,2.39-5.23,4.78-7.83,7.17c-0.64,0.59-0.97,1.2-0.97,1.83
				c0,0.84,0.06,2.11,0.18,3.79s0.18,2.93,0.18,3.76c0,0.28-0.28,0.42-0.83,0.42h-7.93c-0.44,0-0.67-0.23-0.67-0.68
				c0-0.8,0.08-2.01,0.23-3.63c0.16-1.63,0.23-2.84,0.23-3.66c0-0.7-0.28-1.33-0.83-1.88c-1.6-1.45-3.99-3.64-7.16-6.56
				c-2.71-2.61-4.67-4.59-5.86-5.95c-0.4-0.47-0.6-0.92-0.6-1.36c-0.04-1.97-0.07-4.81-0.07-8.53c0-0.42,0.27-0.63,0.8-0.63
				c0.38,0,0.94,0.02,1.68,0.07c0.74,0.05,1.3,0.07,1.68,0.07c0.44,0,1.11-0.02,2-0.07c0.89-0.05,1.57-0.07,2.03-0.07
				c0.4,0,0.6,0.13,0.6,0.38c0,0.88-0.07,2.19-0.2,3.94c-0.13,1.75-0.2,3.06-0.2,3.94c0,0.94,3.52,4.23,10.56,9.89
				c1.67-1.33,3.58-2.98,5.73-4.95c3-2.72,4.5-4.35,4.5-4.9c0-0.84-0.09-2.12-0.27-3.83s-0.27-2.99-0.27-3.83
				c0-0.42,0.25-0.63,0.77-0.63c0.4,0,1.01,0.02,1.83,0.07s1.43,0.07,1.83,0.07c0.42,0,1.06-0.02,1.92-0.07s1.49-0.07,1.92-0.07
				c0.53,0,0.8,0.26,0.8,0.77c0,0.89,0.02,2.23,0.07,4.03S992.86,822.04,992.86,822.93z"/>
			<path class="st3" d="M1058,846.39c0,0.39-0.28,0.59-0.83,0.59c-0.4,0-1.01-0.02-1.82-0.07s-1.42-0.07-1.82-0.07
				c-0.4,0-1.01,0.02-1.83,0.07s-1.43,0.07-1.83,0.07c-0.56,0-0.83-0.26-0.83-0.77c0-1.98,0.09-4.96,0.27-8.93
				c0.18-3.97,0.27-6.95,0.27-8.93c0-0.3-0.09-0.45-0.27-0.45c-0.2,0-0.36,0.09-0.47,0.26c-1.13,1.7-3.81,6.25-8.03,13.64
				c-0.69,1.42-1.68,3.2-2.97,5.32c-0.16,0.2-0.96,0.3-2.4,0.3c-2.09,0-3.24-0.13-3.47-0.4c-0.75-1.27-1.83-3.04-3.23-5.32
				c-1.84-3.09-4.68-7.7-8.5-13.83c-0.07-0.11-0.21-0.22-0.43-0.33c-0.18,0.09-0.27,0.27-0.27,0.52c0,2.02,0.05,5.04,0.15,9.07
				c0.1,4.03,0.15,7.05,0.15,9.07c0,0.52-0.28,0.77-0.83,0.77c-0.38,0-0.96-0.02-1.73-0.07c-0.78-0.05-1.36-0.07-1.73-0.07
				c-0.4,0-0.99,0.02-1.78,0.07c-0.79,0.05-1.38,0.07-1.78,0.07c-0.56,0-0.83-0.15-0.83-0.45c0-1.73,0.12-4.33,0.35-7.79
				c0.23-3.46,0.35-6.06,0.35-7.79c0-1.8-0.12-4.5-0.35-8.1c-0.23-3.6-0.35-6.3-0.35-8.1c0-0.3,0.26-0.47,0.77-0.52
				c3.02-0.28,5.3-0.42,6.83-0.42c0.22,0,0.53,0.32,0.93,0.96c5.38,8.31,10,15.73,13.86,22.27c0.91,1.53,1.45,2.3,1.63,2.3
				c0.22,0,0.7-0.63,1.43-1.88c3.02-5.06,7.21-12.58,12.56-22.55c0.33-0.61,0.7-0.91,1.1-0.91c0.76,0,1.89,0.03,3.42,0.09
				s2.66,0.09,3.42,0.09c0.55,0,0.83,0.19,0.83,0.56c0,1.8-0.08,4.5-0.25,8.1s-0.25,6.3-0.25,8.1c0,1.72,0.09,4.3,0.28,7.73
				S1058,844.69,1058,846.39z"/>
			<path class="st3" d="M1104.65,846.7c0,0.19-0.27,0.28-0.8,0.28c-0.42,0-1.04-0.02-1.85-0.07c-0.81-0.05-1.43-0.07-1.85-0.07
				s-1.06,0.02-1.9,0.07c-0.84,0.05-1.48,0.07-1.9,0.07c-0.62,0-1.42-1.18-2.38-3.55s-1.95-3.57-2.95-3.6
				c-0.82-0.03-2.97-0.05-6.43-0.05h-5.26c-3.67,0-5.75,0.02-6.26,0.05c-0.8,0.05-1.65,1.25-2.55,3.61
				c-0.9,2.36-1.59,3.54-2.08,3.54h-7.5c-0.44,0-0.67-0.11-0.67-0.33c0-0.16,0.16-0.51,0.47-1.05l8.16-15.7
				c0.69-1.27,2.78-4.91,6.27-10.95c0.62-1,1.47-2.51,2.53-4.52c0.27-0.59,0.56-0.89,0.87-0.89c0.42,0,1.04,0.04,1.87,0.12
				c0.82,0.08,1.44,0.12,1.87,0.12c0.4,0,1-0.04,1.82-0.13c0.81-0.09,1.4-0.13,1.78-0.13c0.2,0,0.48,0.29,0.83,0.87
				c0.53,0.88,3.17,5.59,7.9,14.13C1101.3,840.53,1104.65,846.59,1104.65,846.7z M1089.12,833.76c0-0.45-1-2.48-3-6.09
				c-1.93-3.5-3.3-5.8-4.1-6.89c-4.6,8.25-6.9,12.57-6.9,12.96c0,0.53,0.84,0.84,2.53,0.94c0.09,0.02,1.18,0.02,3.27,0.02h3.43
				C1087.53,834.7,1089.12,834.38,1089.12,833.76z"/>
			<path class="st3" d="M1115.94,846.49c0,0.33-0.32,0.49-0.97,0.49c-0.4,0-1.01-0.02-1.83-0.07s-1.43-0.07-1.83-0.07
				c-0.42,0-1.04,0.02-1.87,0.07s-1.43,0.07-1.83,0.07c-0.56,0-0.83-0.18-0.83-0.54c0-1.78,0.12-4.46,0.35-8.05s0.35-6.28,0.35-8.07
				c0-1.73-0.12-4.34-0.35-7.82s-0.35-6.08-0.35-7.82c0-0.39,0.25-0.59,0.77-0.59c0.42,0,1.07,0.02,1.93,0.07
				c0.87,0.05,1.52,0.07,1.97,0.07c0.4,0,1-0.02,1.8-0.07c0.8-0.05,1.4-0.07,1.8-0.07c0.58,0,0.87,0.16,0.87,0.47
				c0,1.75-0.09,4.38-0.27,7.88c-0.18,3.5-0.27,6.13-0.27,7.88c0,1.8,0.09,4.49,0.28,8.09
				C1115.84,841.99,1115.94,844.69,1115.94,846.49z"/>
			<path class="st3" d="M1158.19,845.88c0,0.73-0.32,1.1-0.97,1.1h-7.66c-0.64,0-2.32-1.66-5.03-4.99
				c-2.29-2.81-3.81-4.84-4.57-6.09c-0.76-1.2-1.19-1.88-1.3-2.02c-0.67-0.78-1.45-1.2-2.33-1.24c-0.27-0.02-1.01-0.02-2.23-0.02
				c-2.8,0-4.2,0.24-4.2,0.73c0,1.44,0.07,3.59,0.22,6.45c0.14,2.86,0.22,5,0.22,6.42c0,0.52-0.28,0.77-0.83,0.77
				c-0.42,0-1.06-0.02-1.9-0.07c-0.84-0.05-1.48-0.07-1.9-0.07c-0.4,0-1,0.02-1.78,0.07c-0.79,0.05-1.38,0.07-1.78,0.07
				c-0.55,0-0.83-0.18-0.83-0.54c0-1.72,0.12-4.3,0.35-7.75c0.23-3.45,0.35-6.03,0.35-7.75c0-1.81-0.12-4.54-0.35-8.17
				c-0.23-3.63-0.35-6.36-0.35-8.17c0-0.34,0.28-0.52,0.83-0.52c0.4,0,1.01,0.02,1.83,0.07c0.82,0.05,1.44,0.07,1.87,0.07
				c0.4,0,1-0.02,1.8-0.07c0.8-0.05,1.4-0.07,1.8-0.07c0.51,0,0.77,0.14,0.77,0.42c0,1.33-0.06,3.33-0.18,6s-0.18,4.68-0.18,6.02
				c0,0.61,0.06,0.99,0.17,1.15c0.18,0.28,0.63,0.42,1.37,0.42c4.31,0,7.46-0.56,9.46-1.69c1.71-1,3.33-2.84,4.87-5.51
				c1.11-2.09,2.22-4.19,3.33-6.28c0.15-0.27,0.5-0.45,1.03-0.54c0.35-0.06,1.53-0.09,3.53-0.09c2.44,0,3.67,0.24,3.67,0.73
				c0,0.28-0.51,1.55-1.53,3.8c-1.2,2.63-2.75,4.94-4.67,6.94c-1.27,1.36-2.94,2.73-5.03,4.1c-0.53,0.33-0.8,0.63-0.8,0.89
				c0,0.28,0.9,1.68,2.7,4.2c1.55,2.17,2.96,3.91,4.23,5.23c1.4,1.2,3.35,3.05,5.87,5.55
				C1158.13,845.57,1158.19,845.72,1158.19,845.88z"/>
			<path class="st3" d="M1191.9,842.27c0,0.25-0.09,0.61-0.27,1.08c-0.2,0.59-0.32,0.95-0.37,1.08c-0.07,0.56-0.22,1.38-0.47,2.46
				c-0.11,0.28-0.4,0.42-0.87,0.42c-0.22,0-0.64-0.03-1.27-0.09c-2.73-0.28-6.96-0.42-12.7-0.42c-1.62,0-4.07,0.03-7.33,0.09
				s-5.71,0.09-7.33,0.09c-0.73,0-1.1-0.23-1.1-0.68c0-1.75,0.14-4.38,0.42-7.89s0.42-6.14,0.42-7.89c0-1.78-0.13-5.1-0.4-9.96
				c-0.04-1.25-0.17-3.12-0.37-5.6l-0.03-0.33c-0.02-0.36,0.27-0.54,0.87-0.54c1.55,0,3.89,0.03,7,0.09s5.44,0.09,7,0.09
				c1.49,0,3.72-0.03,6.68-0.09c2.97-0.06,5.19-0.09,6.68-0.09c1.04,0,1.61,0.23,1.7,0.68c0.47,2.06,0.7,3.34,0.7,3.84
				c0,0.36-0.25,0.54-0.73,0.54c-1.89,0-4.75-0.07-8.58-0.22s-6.71-0.22-8.65-0.22c-1.82,0-2.97,0.17-3.45,0.52s-0.72,1.2-0.72,2.55
				v3.49c0,0.95,0.03,1.51,0.1,1.66c0.2,0.48,0.78,0.73,1.73,0.73c0.27,0,0.64-0.01,1.13-0.02c0.51,0,0.89,0,1.13,0
				c4.35,0,8.26-0.05,11.73-0.16c1.35-0.03,2.95-0.11,4.8-0.23c0.47-0.03,0.7,0.11,0.7,0.42c0,0.5-0.08,1.27-0.25,2.3
				s-0.25,1.8-0.25,2.32c0,0.28-0.33,0.42-1,0.42c-0.27,0-1.25-0.05-2.96-0.16c-1.25-0.09-4.04-0.14-8.4-0.14
				c-3.67,0-5.99,0.03-6.96,0.09c-0.89,0.05-1.4,0.38-1.53,0.98c0.02-0.11,0.03,0.49,0.03,1.8v3.47c0,1.63,0.35,2.64,1.07,3.05
				c0.56,0.33,1.94,0.49,4.17,0.49l3.67-0.02c1.55,0,5.92-0.19,13.1-0.56l0.5-0.02C1191.68,841.65,1191.9,841.85,1191.9,842.27z"/>
			<path class="st3" d="M1226.86,841.89c0,2.19-0.17,3.74-0.5,4.66c-0.16,0.45-0.54,0.68-1.17,0.68c-1.64,0-4.11-0.07-7.4-0.2
				c-3.29-0.13-5.75-0.2-7.4-0.2c-1.55,0-3.88,0.02-6.96,0.07s-5.41,0.07-6.96,0.07c-0.55,0-0.83-0.2-0.83-0.59
				c0-1.7,0.08-4.27,0.25-7.71c0.17-3.44,0.25-6.02,0.25-7.73c0-1.81-0.12-4.53-0.35-8.14s-0.35-6.33-0.35-8.14
				c0-0.34,0.28-0.52,0.83-0.52c0.4,0,1.01,0.02,1.83,0.07s1.44,0.07,1.87,0.07c0.4,0,1.02-0.02,1.87-0.07s1.47-0.07,1.87-0.07
				c0.53,0,0.8,0.15,0.8,0.45c0,1.66-0.09,4.15-0.27,7.48s-0.27,5.83-0.27,7.5c0,0.81,0,2.05,0,3.7c-0.02,1.66-0.03,2.89-0.03,3.7
				c0,3.47,0.2,5.2,0.6,5.2c8.2,0,14.38-0.14,18.56-0.42c0.2-0.02,0.71-0.07,1.53-0.16c0.67-0.09,1.18-0.14,1.53-0.14
				C1226.62,841.45,1226.86,841.6,1226.86,841.89z"/>
			<path class="st3" d="M1260.51,841.89c0,2.19-0.17,3.74-0.5,4.66c-0.16,0.45-0.54,0.68-1.17,0.68c-1.64,0-4.11-0.07-7.4-0.2
				c-3.29-0.13-5.75-0.2-7.4-0.2c-1.55,0-3.88,0.02-6.96,0.07s-5.41,0.07-6.96,0.07c-0.56,0-0.83-0.2-0.83-0.59
				c0-1.7,0.08-4.27,0.25-7.71s0.25-6.02,0.25-7.73c0-1.81-0.12-4.53-0.35-8.14c-0.23-3.62-0.35-6.33-0.35-8.14
				c0-0.34,0.28-0.52,0.83-0.52c0.4,0,1.01,0.02,1.83,0.07c0.82,0.05,1.44,0.07,1.87,0.07c0.4,0,1.02-0.02,1.87-0.07
				c0.85-0.05,1.47-0.07,1.87-0.07c0.53,0,0.8,0.15,0.8,0.45c0,1.66-0.09,4.15-0.27,7.48s-0.27,5.83-0.27,7.5c0,0.81,0,2.05,0,3.7
				c-0.02,1.66-0.03,2.89-0.03,3.7c0,3.47,0.2,5.2,0.6,5.2c8.2,0,14.38-0.14,18.56-0.42c0.2-0.02,0.71-0.07,1.53-0.16
				c0.67-0.09,1.18-0.14,1.53-0.14C1260.27,841.45,1260.51,841.6,1260.51,841.89z"/>
		</g>
	</g>
	<g>
		<path class="st1" d="M1301.37,686.63c-7.64-26.39-16.04-51.66-25.46-75.58L1136.1,196h-1.6h-69.55h-1.6l-62.22,184.7
			c-21.77-2.4-45.03-3.23-69.96-2.36c-24.08,0.84-46.97,2.51-68.71,5.26L799.27,196h-1.6h-69.55h-1.6L597.2,579.92
			c-14.21,32.21-26.76,69.33-37.75,112.08h69.92h1.23l26.11-77.5c33.68-65.32,90.78-115.32,165.57-139.02L895.2,692h1.06h70.09h1.06
			l132.31-392.77l44.15,131.06c-19.55-13.17-41.15-24.09-65.12-32.48l-25.52,71.28c69.61,15.01,115.25,58.95,169.51,195.34
			l9.29,27.57h1.33h69.55h0.26L1301.37,686.63z M718.93,429.77l43.97-130.54l32.85,97.52C767.91,404.61,742.35,415.34,718.93,429.77
			z M931.31,587.97l-42.43-125.95c13.68-1.32,27.78-1.89,42.29-1.61c15.13,0.29,29.34,0.53,42.78,0.95L931.31,587.97z"/>
	</g>
</g>
<g>
</g>
<g>
</g>
<g>
</g>
<g>
</g>
<g>
</g>
<g>
</g>
<g>
</g>
<g>
</g>
<g>
</g>
<g>
</g>
<g>
</g>
<g>
</g>
<g>
</g>
<g>
</g>
<g>
</g>
</svg>
